<svg width="73" height="147" viewBox="0 0 73 147" fill="none" xmlns="http://www.w3.org/2000/svg">
<path d="M1.19336 139.166V5.22536V4.54199H4.62432H36.1892H68.4402H72.2143V139.166V146H68.4402H4.62432H1.19336V139.166Z" fill="#F1F1F1"/>
<path d="M1.19336 139.166V5.22536V4.54199H4.62432H36.1892M1.19336 139.166V146H4.62432M1.19336 139.166H4.62432M72.2143 139.166V4.54199H68.4402H36.1892M72.2143 139.166V146H68.4402M72.2143 139.166H68.4402M36.1892 4.54199V139.166M36.1892 139.166H68.4402M36.1892 139.166H4.62432M68.4402 139.166V146M68.4402 146H4.62432M4.62432 146V139.166" stroke="#191919"/>
<rect x="31.1929" y="74" width="3" height="3" rx="1.5" fill="#191919"/>
<rect x="38.1934" y="74" width="3" height="3" rx="1.5" fill="#191919"/>
<path d="M1.0002 4L72.5398 4L72.54 1L1.0002 1V4Z" fill="#FC8025" stroke="#191919" stroke-width="0.5"/>
</svg>
