<svg width="84" height="157" viewBox="0 0 84 157" fill="none" xmlns="http://www.w3.org/2000/svg">
<path d="M83 149.166V15.2255V13.5421L72.0209 6H68.9331H1V147.116L10.9791 156H15.7531H79.569H83V149.166Z" fill="#F1F1F1"/>
<path d="M83 149.166V15.2255V13.5421M83 149.166V156H79.569M83 149.166H79.569M10.9791 149.166V13.5421M10.9791 149.166V156M10.9791 149.166H15.7531M10.9791 13.5421L1 6M10.9791 13.5421H15.7531H48.0042M83 13.5421L72.0209 6H68.9331M83 13.5421H79.569M1 6H68.9331M1 6V147.116L10.9791 156M68.9331 6L79.569 13.5421M79.569 13.5421H48.0042M48.0042 13.5421V149.166M48.0042 149.166H15.7531M48.0042 149.166H79.569M10.9791 156H15.7531M15.7531 149.166V156M15.7531 156H79.569M79.569 156V149.166" stroke="#191919"/>
<rect width="3" height="3" rx="1.5" transform="matrix(-1 0 0 1 52.9995 84)" fill="#191919"/>
<rect width="3" height="3" rx="1.5" transform="matrix(-1 0 0 1 45.9995 84)" fill="#191919"/>
<path d="M1 6L1 1H3L13 8L13 13.5H11L1 6Z" fill="#FC8025"/>
<path d="M11 8L11 13.5M11 8L1 1M11 8H13M11 13.5L1 6L1 1M11 13.5H13L13 8M1 1H3L13 8" stroke="#191919" stroke-width="0.5"/>
</svg>
