<svg width="74" height="151" viewBox="0 0 74 151" fill="none" xmlns="http://www.w3.org/2000/svg">
<path d="M1.19336 143.166V9.22536V8.54199H4.62432H36.1892H68.4402H72.2143V143.166V150H68.4402H4.62432H1.19336V143.166Z" fill="#F1F1F1"/>
<path d="M1.19336 143.166V9.22536V8.54199H4.62432H36.1892M1.19336 143.166V150H4.62432M1.19336 143.166H4.62432M72.2143 143.166V8.54199H68.4402H36.1892M72.2143 143.166V150H68.4402M72.2143 143.166H68.4402M36.1892 8.54199V143.166M36.1892 143.166H68.4402M36.1892 143.166H4.62432M68.4402 143.166V150M68.4402 150H4.62432M4.62432 150V143.166" stroke="#191919"/>
<rect x="31.1929" y="78" width="3" height="3" rx="1.5" fill="#191919"/>
<rect x="38.1934" y="78" width="3" height="3" rx="1.5" fill="#191919"/>
<path d="M1 8L72.9998 8L73 1L1 1V8Z" fill="#FC8025" stroke="#191919" stroke-width="0.5"/>
</svg>
