<svg width="84" height="157" viewBox="0 0 84 157" fill="none" xmlns="http://www.w3.org/2000/svg">
<path d="M1 149.166V15.2255V13.5421L11.9791 6H15.0669H83V147.116L73.0209 156H68.2469H4.43096H1V149.166Z" fill="#F1F1F1"/>
<path d="M1 149.166V15.2255V13.5421M1 149.166V156H4.43096M1 149.166H4.43096M73.0209 149.166V13.5421M73.0209 149.166V156M73.0209 149.166H68.2469M73.0209 13.5421L83 6M73.0209 13.5421H68.2469H35.9958M1 13.5421L11.9791 6H15.0669M1 13.5421H4.43096M83 6H15.0669M83 6V147.116L73.0209 156M15.0669 6L4.43096 13.5421M4.43096 13.5421H35.9958M35.9958 13.5421V149.166M35.9958 149.166H68.2469M35.9958 149.166H4.43096M73.0209 156H68.2469M68.2469 149.166V156M68.2469 156H4.43096M4.43096 156V149.166" stroke="#191919"/>
<rect x="31.0005" y="84" width="3" height="3" rx="1.5" fill="#191919"/>
<rect x="38.0005" y="84" width="3" height="3" rx="1.5" fill="#191919"/>
<path d="M83 6V1H81L71 8V13.5H73L83 6Z" fill="#FC8025"/>
<path d="M73 8V13.5M73 8L83 1M73 8H71M73 13.5L83 6V1M73 13.5H71V8M83 1H81L71 8" stroke="#191919" stroke-width="0.5"/>
</svg>
