<svg width="177" height="101" viewBox="0 0 177 101" fill="none" xmlns="http://www.w3.org/2000/svg">
<path d="M7.20197 85.0136L5.31445 80.6539L16.3699 71.6621V72.2071V86.921V94.0054L15.8306 94.2779L7.47162 99.7275V93.733V89.1008L7.20197 85.0136Z" fill="#8A4C32"/>
<path d="M1.53955 78.0491L13.6736 70.2997L16.3701 70.2997L16.3701 71.9346L5.04494 80.6539L1.53955 78.0491Z" fill="#8A4C32"/>
<path d="M1 78.2015V99.9999H7.47149M1 78.2015L13.4037 70.0271H16.3698V71.9345M1 78.2015C2.79596 78.8064 4.09967 79.7264 5.04468 80.9451M7.47149 99.9999L16.1001 94.0053L16.3698 71.9345M7.47149 99.9999C7.47149 91.1735 7.93055 84.6666 5.04468 80.9451M16.3698 71.9345L5.04468 80.9451" stroke="black" stroke-width="1.5"/>
<path d="M10.9771 0V63.2153M155.777 70.0273V62.3978M155.777 70.0273L169.259 59.3097M155.777 70.0273H149.305M155.777 62.3978L148.766 63.2153M155.777 62.3978V0M155.777 62.3978L176 46.594M148.766 63.2153H17.9878M148.766 63.2153V46.594M10.9771 63.2153V70.0273H16.37M10.9771 63.2153H17.9878M17.9878 63.2153V0M17.9878 63.2153L38.4809 46.594M38.4809 46.594V0M38.4809 46.594H148.766M148.766 46.594V0M176 46.594V0M176 46.594V53.951L169.259 59.3097M169.259 59.3097V79.1948L149.305 95.0954M149.305 95.0954V70.0273M149.305 95.0954H16.37V70.0273M149.305 70.0273H16.37" stroke="black" stroke-width="1.5"/>
</svg>
