<svg width="172" height="101" viewBox="0 0 172 101" fill="none" xmlns="http://www.w3.org/2000/svg">
<path d="M149.646 73.6092C152 75.5 157.559 77.1882 164.067 73.6092M149.646 73.6092C150.599 71.612 162.673 70.9995 164.067 73.6092M149.646 73.6092V77.1477C149.646 78.8046 150.989 80.1477 152.646 80.1477H161.067C162.724 80.1477 164.067 78.8046 164.067 77.1477V73.6092" stroke="black" stroke-width="1.5"/>
<path d="M161.357 74.7906C157.562 76.0669 154.178 75.5809 151.886 74.734C150.519 74.2291 150.412 72.8139 151.824 72.4538C154.43 71.789 158.734 71.6296 161.517 72.2469C163.12 72.6026 162.914 74.2672 161.357 74.7906Z" fill="black" stroke="black" stroke-width="1.5"/>
<path d="M124.687 93.4612C126.782 94.9525 132.6 97.0402 139.108 93.4612M124.687 93.4612C125.64 91.464 137.714 90.8515 139.108 93.4612M124.687 93.4612V96.9998C124.687 98.6566 126.03 99.9998 127.687 99.9998H136.108C137.765 99.9998 139.108 98.6566 139.108 96.9998V93.4612" stroke="black" stroke-width="1.5"/>
<path d="M137.326 94.2982C132.693 96.1839 128.575 95.3644 126.148 94.2674C125.263 93.8673 125.144 92.8713 126.059 92.5471C128.76 91.591 134.596 91.3594 137.51 92.3627C138.546 92.7192 138.34 93.8855 137.326 94.2982Z" fill="black" stroke="black" stroke-width="1.5"/>
<path d="M153.529 72.6986L153.529 69.6229L160.185 64.3103V64.5899V72.6986C160.185 75.2151 153.516 75.7312 153.529 72.6986Z" fill="white" stroke="black" stroke-width="1.5"/>
<path d="M128.569 92.5509L128.569 72.1394H135.225V84.4422V92.5509C135.225 95.0674 128.556 95.5835 128.569 92.5509Z" fill="white" stroke="black" stroke-width="1.5"/>
<path d="M1.27734 0V65.1491M1.27734 65.1491H8.76511M1.27734 65.1491V72.1394H150.201M8.76511 65.1491V0M8.76511 65.1491L30.1191 48.0929M8.76511 65.1491H143.268M30.1191 48.0929V0M30.1191 48.0929H143.268M143.268 48.0929V0M143.268 48.0929V65.1491M143.268 65.1491H150.201M150.201 65.1491V0M150.201 65.1491L171 48.3725M150.201 65.1491V72.1394M171 48.3725V0M171 48.3725V55.6424L150.201 72.1394" stroke="black" stroke-width="1.5"/>
<path d="M101.526 74.2874C102.31 75.5745 102.754 76.5724 103.016 77.5403C103.299 78.5893 103.38 79.6437 103.413 81.0657C103.301 82.6936 102.746 83.8948 101.982 85.1262C101.234 86.3333 100.183 87.7073 99.333 89.4211C98.8325 90.4304 98.7477 91.5658 98.8604 92.6458C98.9734 93.7288 99.2901 94.8096 99.6504 95.7542C99.977 96.6103 100.348 97.3732 100.654 97.9524H1.75V74.2874H101.526Z" stroke="black" stroke-width="1.5"/>
<path d="M98.1992 74.2874C98.9831 75.5744 99.4272 76.5725 99.6885 77.5403C99.9718 78.5902 100.053 79.6457 100.086 81.0696C99.9737 82.6955 99.4178 83.8958 98.6553 85.1262C97.9071 86.3334 96.8549 87.7071 96.0049 89.4211C95.5044 90.4304 95.4195 91.5658 95.5322 92.6458C95.6453 93.7288 95.9629 94.8096 96.3232 95.7542C96.6498 96.6101 97.02 97.3732 97.3262 97.9524H1.75V74.2874H98.1992Z" stroke="black" stroke-width="1.5"/>
</svg>
