<svg width="23" height="23" viewBox="0 0 23 23" fill="none" xmlns="http://www.w3.org/2000/svg">
<path d="M18.5196 9.07373C18.5196 9.07373 17.9993 15.5281 17.6974 18.2469C17.5536 19.5454 16.7515 20.3064 15.4376 20.3303C12.9373 20.3754 10.4342 20.3782 7.93484 20.3255C6.6708 20.2996 5.88209 19.5291 5.74121 18.2536C5.43742 15.5109 4.91992 9.07373 4.91992 9.07373" stroke="#005840" stroke-width="1.5" stroke-linecap="round" stroke-linejoin="round"/>
<path d="M19.8452 5.97978H3.59375" stroke="#005840" stroke-width="1.5" stroke-linecap="round" stroke-linejoin="round"/>
<path d="M16.7138 5.97973C15.9615 5.97973 15.3137 5.44786 15.1661 4.7109L14.9332 3.54557C14.7895 3.00794 14.3026 2.63611 13.7478 2.63611H9.69114C9.13626 2.63611 8.64943 3.00794 8.50568 3.54557L8.27281 4.7109C8.12522 5.44786 7.47739 5.97973 6.7251 5.97973" stroke="#005840" stroke-width="1.5" stroke-linecap="round" stroke-linejoin="round"/>
</svg>
