<svg width="46" height="107" viewBox="0 0 46 107" fill="none" xmlns="http://www.w3.org/2000/svg">
<path d="M1.40576 102.111V0.583252H35.4845L44.5721 4.5591V29.1715V101.494V106.417H42.1109H12.3867H9.92544L1.40576 102.111Z" fill="#F1F1F1"/>
<path d="M1.40576 0.583252V102.111L9.92544 106.417M1.40576 0.583252L9.92544 4.5591M1.40576 0.583252H35.4845L44.5721 4.5591M9.92544 106.417V101.494M9.92544 106.417H12.3867M44.5721 4.5591H9.92544M44.5721 4.5591V29.1715M9.92544 4.5591V29.1715M9.92544 101.494H12.3867M9.92544 101.494V29.1715M44.5721 101.494V106.417H42.1109M44.5721 101.494H42.1109M44.5721 101.494V29.1715M42.1109 101.494V106.417M42.1109 101.494H12.3867M42.1109 106.417H12.3867M12.3867 106.417V101.494M9.92544 29.1715H44.5721" stroke="black"/>
</svg>
