<svg width="39" height="107" viewBox="0 0 39 107" fill="none" xmlns="http://www.w3.org/2000/svg">
<path d="M1.48877 21.7818V0.583252H30.8085L38.1777 4.40855V25.4477H8.70112L1.48877 21.7818Z" fill="#F1F1F1"/>
<path d="M1.48877 102.591V36.6048H30.9653L38.0209 40.1114V102.113V106.417H36.1394H10.7394H8.85791L1.48877 102.591Z" fill="#F1F1F1"/>
<path d="M1.48877 0.583252V21.7818L8.70112 25.4477M1.48877 0.583252L8.70112 4.40855M1.48877 0.583252H30.8085L38.1777 4.40855M8.70112 25.4477H38.1777V4.40855M8.70112 25.4477V4.40855M38.1777 4.40855H8.70112M1.48877 36.6048V102.591L8.85791 106.417M1.48877 36.6048H30.9653L38.0209 40.1114M1.48877 36.6048L8.85791 40.1114M8.85791 106.417V102.113M8.85791 106.417H10.7394M38.0209 40.1114H8.85791M38.0209 40.1114V102.113M8.85791 40.1114V102.113M8.85791 102.113H10.7394M38.0209 102.113V106.417H36.1394M38.0209 102.113H36.1394M36.1394 102.113V106.417M36.1394 102.113H10.7394M36.1394 106.417H10.7394M10.7394 106.417V102.113" stroke="black"/>
<path d="M19.8335 34.4501L22.7202 29.4501H16.9467L19.8335 34.4501ZM19.8335 28.8057H19.3335V29.9501H19.8335H20.3335V28.8057H19.8335Z" fill="black"/>
</svg>
