<svg width="60" height="107" viewBox="0 0 60 107" fill="none" xmlns="http://www.w3.org/2000/svg">
<path d="M59 101.216V7.45786V6.9795L51.2343 1H49.0502H3.42678H1V99.7813L8.76569 106H11.4351H56.5732H59V101.216Z" fill="#F1F1F1"/>
<path d="M59 101.216V7.45786V6.9795M59 101.216V106H56.5732M59 101.216H56.5732M8.76569 101.216V6.9795M8.76569 101.216V106M8.76569 101.216H11.4351M8.76569 6.9795L1 1M8.76569 6.9795H11.4351M59 6.9795L51.2343 1H49.0502M59 6.9795H56.5732M1 1H3.42678M1 1V99.7813L8.76569 106M11.4351 6.9795L3.42678 1M11.4351 6.9795H34.2469M3.42678 1H49.0502M49.0502 1L56.5732 6.9795M56.5732 6.9795H34.2469M34.2469 6.9795V101.216M34.2469 101.216H11.4351M34.2469 101.216H56.5732M8.76569 106H11.4351M11.4351 101.216V106M11.4351 106H56.5732M56.5732 106V101.216" stroke="#191919"/>
</svg>
