<svg width="62" height="107" viewBox="0 0 62 107" fill="none" xmlns="http://www.w3.org/2000/svg">
<path d="M57.5518 101.216V7.45786V6.2795L49.98 1H47.8504H3.3663H1.00013V99.7813L7.88224 106H11.1747H55.1856H57.5518V101.216Z" fill="#F1F1F1"/>
<path d="M57.5518 101.216V7.45786V6.2795M57.5518 101.216V106H55.1856M57.5518 101.216H55.1856M7.88224 101.216V6.2795M7.88224 101.216V106M7.88224 101.216H11.1747M7.88224 6.2795L1.00013 1M7.88224 6.2795H11.1747M57.5518 6.2795L49.98 1H47.8504M57.5518 6.2795H55.1856M1.00013 1H3.3663M1.00013 1V99.7813L7.88224 106M11.1747 6.2795L3.3663 1M11.1747 6.2795H33.4168M3.3663 1H47.8504M47.8504 1L55.1856 6.2795M55.1856 6.2795H33.4168M33.4168 6.2795V101.216M33.4168 101.216H11.1747M33.4168 101.216H55.1856M7.88224 106H11.1747M11.1747 101.216V106M11.1747 106H55.1856M55.1856 106V101.216" stroke="#191919"/>
<rect width="2.06896" height="2.1" rx="1.03448" transform="matrix(-1 0 0 1 36.8618 55.6001)" fill="#191919"/>
<rect width="2.06896" height="2.1" rx="1.03448" transform="matrix(-1 0 0 1 32.0347 55.6001)" fill="#191919"/>
<path d="M61 106H57.5518V6.6001H61V106Z" fill="#FC8025" stroke="#191919"/>
<path d="M7.89651 106H4.44824V6.6001H7.89651V106Z" fill="#FC8025" stroke="#191919"/>
<path d="M60.9999 3.1001V6.6001L4.44824 6.6001V3.1001L60.9999 3.1001Z" fill="#FC8025" stroke="#191919"/>
</svg>
