<svg width="28" height="28" viewBox="0 0 28 28" fill="none" xmlns="http://www.w3.org/2000/svg">
<rect width="28" height="28" fill="white"/>
<path d="M7.40123 14.0003L9.8761 16.4751M10.7007 10.7002L13.1756 13.1751M14.0002 7.40074L16.4751 9.87561M5.91555 15.4846L15.4851 5.91506C16.4091 4.99102 16.8716 4.52901 17.4044 4.3559C17.873 4.20363 18.3777 4.20363 18.8463 4.3559C19.3788 4.52891 19.8404 4.9905 20.7634 5.9135L22.0848 7.235C23.0089 8.15903 23.4714 8.62214 23.6445 9.15491C23.7968 9.62354 23.7965 10.1273 23.6442 10.596C23.4711 11.1287 23.0092 11.5911 22.0852 12.5152L12.5156 22.0847C11.5916 23.0087 11.1292 23.4706 10.5965 23.6437C10.1278 23.796 9.62403 23.7963 9.1554 23.644C8.62263 23.4709 8.15952 23.0084 7.23548 22.0844L5.91398 20.7629C4.99099 19.8399 4.5294 19.3783 4.35639 18.8458C4.20412 18.3772 4.20412 17.8725 4.35639 17.4039C4.5295 16.8711 4.99151 16.4086 5.91555 15.4846Z" stroke="#B2B2B2" stroke-width="2" stroke-linecap="round" stroke-linejoin="round"/>
</svg>
