<svg width="20" height="20" viewBox="0 0 20 20" fill="none" xmlns="http://www.w3.org/2000/svg">
<rect x="0.5" y="0.5" width="19" height="19" rx="9.5" fill="white" stroke="#005840"/>
<path d="M10.1992 12.197H8.92773C8.93229 11.7595 8.97103 11.4018 9.04395 11.1238C9.12142 10.8412 9.24674 10.5837 9.41992 10.3513C9.5931 10.1189 9.82324 9.85457 10.1104 9.55835C10.32 9.34416 10.5114 9.14364 10.6846 8.95679C10.8623 8.76538 11.0059 8.5603 11.1152 8.34155C11.2246 8.11825 11.2793 7.85164 11.2793 7.54175C11.2793 7.22729 11.2223 6.95614 11.1084 6.72827C10.999 6.50041 10.835 6.32495 10.6162 6.2019C10.402 6.07886 10.1354 6.01733 9.81641 6.01733C9.55208 6.01733 9.30143 6.06519 9.06445 6.16089C8.82747 6.25659 8.63607 6.4047 8.49023 6.60522C8.3444 6.80119 8.26921 7.05868 8.26465 7.37769H7C7.00911 6.86271 7.13672 6.42065 7.38281 6.05151C7.63346 5.68237 7.9707 5.39982 8.39453 5.20386C8.81836 5.00789 9.29232 4.90991 9.81641 4.90991C10.3952 4.90991 10.8874 5.01473 11.293 5.22437C11.7031 5.434 12.0153 5.73478 12.2295 6.12671C12.4437 6.51408 12.5508 6.97437 12.5508 7.50757C12.5508 7.91772 12.4665 8.29598 12.2979 8.64233C12.1338 8.98413 11.9219 9.30542 11.6621 9.6062C11.4023 9.90698 11.1266 10.1941 10.835 10.4675C10.5843 10.7 10.4157 10.962 10.3291 11.2537C10.2425 11.5453 10.1992 11.8598 10.1992 12.197ZM8.87305 14.364C8.87305 14.1589 8.93685 13.9858 9.06445 13.8445C9.19206 13.7032 9.37663 13.6326 9.61816 13.6326C9.86426 13.6326 10.0511 13.7032 10.1787 13.8445C10.3063 13.9858 10.3701 14.1589 10.3701 14.364C10.3701 14.56 10.3063 14.7286 10.1787 14.8699C10.0511 15.0111 9.86426 15.0818 9.61816 15.0818C9.37663 15.0818 9.19206 15.0111 9.06445 14.8699C8.93685 14.7286 8.87305 14.56 8.87305 14.364Z" fill="#005840"/>
</svg>
