<svg width="84" height="152" viewBox="0 0 84 152" fill="none" xmlns="http://www.w3.org/2000/svg">
<path d="M83 144.166V10.2255V8.54214L72.0209 1H68.9331H4.43096H1V142.116L10.9791 151H15.7531H79.569H83V144.166Z" fill="#F1F1F1"/>
<path d="M83 144.166V10.2255V8.54214M83 144.166V151H79.569M83 144.166H79.569M10.9791 144.166V8.54214M10.9791 144.166V151M10.9791 144.166H15.7531M10.9791 8.54214L1 1M10.9791 8.54214H15.7531M83 8.54214L72.0209 1H68.9331M83 8.54214H79.569M1 1H4.43096M1 1V142.116L10.9791 151M15.7531 8.54214L4.43096 1M15.7531 8.54214H48.0042M4.43096 1H68.9331M68.9331 1L79.569 8.54214M79.569 8.54214H48.0042M48.0042 8.54214V144.166M48.0042 144.166H15.7531M48.0042 144.166H79.569M10.9791 151H15.7531M15.7531 144.166V151M15.7531 151H79.569M79.569 151V144.166" stroke="#191919"/>
<rect width="3" height="3" rx="1.5" transform="matrix(-1 0 0 1 53 79)" fill="#191919"/>
<rect width="3" height="3" rx="1.5" transform="matrix(-1 0 0 1 46 79)" fill="#191919"/>
<path d="M7.5 148V7.24476V6L10.066 7.83289L11 8.5V151L10 150L7.5 148Z" fill="#FC8025"/>
<path d="M7.5 7.24476V148L10 150M7.5 7.24476V6L11 8.5M7.5 7.24476L10.066 9.07094M11 8.5L10.066 7.83289V9.07094M11 8.5V151L10 150M10.066 9.07094L10 150" stroke="#191919" stroke-width="0.5"/>
</svg>
