<svg width="84" height="152" viewBox="0 0 84 152" fill="none" xmlns="http://www.w3.org/2000/svg">
<path d="M1 144.166V10.2255V8.54214L11.9791 1H15.0669H79.569H83V142.116L73.0209 151H68.2469H4.43096H1V144.166Z" fill="#F1F1F1"/>
<path d="M1 144.166V10.2255V8.54214M1 144.166V151H4.43096M1 144.166H4.43096M73.0209 144.166V8.54214M73.0209 144.166V151M73.0209 144.166H68.2469M73.0209 8.54214L83 1M73.0209 8.54214H68.2469M1 8.54214L11.9791 1H15.0669M1 8.54214H4.43096M83 1H79.569M83 1V142.116L73.0209 151M68.2469 8.54214L79.569 1M68.2469 8.54214H35.9958M79.569 1H15.0669M15.0669 1L4.43096 8.54214M4.43096 8.54214H35.9958M35.9958 8.54214V144.166M35.9958 144.166H68.2469M35.9958 144.166H4.43096M73.0209 151H68.2469M68.2469 144.166V151M68.2469 151H4.43096M4.43096 151V144.166" stroke="#191919"/>
<rect x="31" y="79" width="3" height="3" rx="1.5" fill="#191919"/>
<rect x="38" y="79" width="3" height="3" rx="1.5" fill="#191919"/>
<path d="M76.5 148V7.24476V6L73.934 7.83289L73 8.5V151L74 150L76.5 148Z" fill="#FC8025"/>
<path d="M76.5 7.24476V148L74 150M76.5 7.24476V6L73 8.5M76.5 7.24476L73.934 9.07094M73 8.5L73.934 7.83289V9.07094M73 8.5V151L74 150M73.934 9.07094L74 150" stroke="#191919" stroke-width="0.5"/>
</svg>
