<svg width="22" height="22" viewBox="0 0 22 22" fill="none" xmlns="http://www.w3.org/2000/svg">
<path d="M4.15904 10.7586L6.63391 13.2334M7.45852 7.45852L9.93339 9.93339M10.758 4.15904L13.2329 6.63391M2.67336 12.2429L12.2429 2.67336C13.1669 1.74933 13.6294 1.28731 14.1622 1.1142C14.6308 0.961933 15.1355 0.961933 15.6041 1.1142C16.1366 1.28721 16.5982 1.7488 17.5212 2.6718L18.8427 3.9933C19.7667 4.91733 20.2292 5.38044 20.4023 5.91321C20.5546 6.38184 20.5543 6.88564 20.402 7.35427C20.2289 7.88704 19.767 8.34942 18.843 9.27346L9.27346 18.843C8.34943 19.767 7.88704 20.2289 7.35427 20.402C6.88564 20.5543 6.38184 20.5546 5.91321 20.4023C5.38044 20.2292 4.91733 19.7667 3.9933 18.8427L2.67179 17.5212C1.7488 16.5982 1.28721 16.1366 1.1142 15.6041C0.961933 15.1355 0.961933 14.6308 1.1142 14.1622C1.28731 13.6294 1.74933 13.1669 2.67336 12.2429Z" stroke="#B2B2B2" stroke-width="2" stroke-linecap="round" stroke-linejoin="round"/>
</svg>
