<svg width="25" height="25" viewBox="0 0 25 25" fill="none" xmlns="http://www.w3.org/2000/svg">
<path d="M6.60841 12.5002L8.81812 14.7099M9.55438 9.55377L11.7641 11.7635M12.5003 6.6078L14.71 8.81751M5.28192 13.8255L13.8261 5.28131C14.6512 4.45627 15.0641 4.04376 15.5398 3.8892C15.9582 3.75324 16.4088 3.75324 16.8272 3.8892C17.3026 4.04367 17.7148 4.45581 18.5389 5.27991L19.7188 6.45982C20.5438 7.28485 20.9568 7.69834 21.1114 8.17402C21.2473 8.59245 21.247 9.04227 21.1111 9.46069C20.9565 9.93637 20.5441 10.3492 19.7191 11.1743L11.1749 19.7185C10.3498 20.5435 9.93698 20.9559 9.4613 21.1105C9.04288 21.2464 8.59306 21.2467 8.17464 21.1108C7.69895 20.9562 7.28546 20.5432 6.46043 19.7182L5.28051 18.5383C4.45641 17.7142 4.04428 17.302 3.88981 16.8266C3.75385 16.4082 3.75385 15.9576 3.88981 15.5392C4.04437 15.0635 4.45688 14.6505 5.28192 13.8255Z" stroke="#005840" stroke-width="2" stroke-linecap="round" stroke-linejoin="round"/>
</svg>
