<svg width="19" height="21" viewBox="0 0 19 21" fill="none" xmlns="http://www.w3.org/2000/svg">
<path d="M7.41663 14.6667H2.20829V19.875M11.5833 6.33333H16.7916V1.125M1.77393 7.37855C2.35797 5.93298 3.33583 4.68025 4.59637 3.76274C5.8569 2.84522 7.35085 2.2995 8.90595 2.18803C10.4611 2.07656 12.0153 2.40354 13.3938 3.13189C14.7723 3.86023 15.9179 4.96098 16.7022 6.30846M17.2266 13.6219C16.6425 15.0675 15.6647 16.3202 14.4041 17.2378C13.1436 18.1553 11.6512 18.7003 10.0961 18.8118C8.54097 18.9232 6.98544 18.5963 5.60693 17.868C4.22842 17.1396 3.08207 16.0391 2.29781 14.6916" stroke="#005840" stroke-width="2" stroke-linecap="round" stroke-linejoin="round"/>
</svg>
