<svg width="66" height="177" viewBox="0 0 66 177" fill="none" xmlns="http://www.w3.org/2000/svg">
<path d="M65.5 0.5V176.5H0.5V0.5H65.5Z" fill="white" stroke="#191919"/>
<rect x="1" y="95" width="64" height="4" fill="url(#paint0_linear_807_436)"/>
<path d="M33.2291 102.509L49.2548 104.6C49.2548 104.6 51.4559 104.794 51.4552 106.725C51.3779 106.956 51.6476 108.578 49.176 108.848C46.241 108.847 33.2268 108.842 33.2268 108.842C33.2268 108.842 20.2126 108.837 17.2777 108.836C14.8063 108.565 15.0771 106.943 15 106.712C15.0007 104.781 17.2019 104.588 17.2019 104.588L33.2291 102.509Z" stroke="#191919" stroke-miterlimit="10" stroke-linecap="round" stroke-linejoin="round"/>
<path d="M33.4342 102.757L33.4351 100.274C33.4351 100.274 33.4042 99.4651 32.529 99.0786C31.9627 98.7437 30.9589 98.1769 31.0109 96.8383C30.7904 93.8652 34.0005 93.6406 34.0005 94.5001" stroke="#191919" stroke-miterlimit="10" stroke-linecap="round" stroke-linejoin="round"/>
<rect x="1" y="27" width="64" height="1" fill="#191919"/>
<rect x="1" y="57" width="64" height="1" fill="#191919"/>
<rect x="1" y="85" width="64" height="1" fill="#191919"/>
<defs>
<linearGradient id="paint0_linear_807_436" x1="34.6552" y1="95" x2="34.6552" y2="99" gradientUnits="userSpaceOnUse">
<stop stop-color="#8B8B8B"/>
<stop offset="0.264423" stop-color="#ABABAB"/>
<stop offset="0.610577" stop-color="#B8B8B8"/>
<stop offset="1" stop-color="#747474"/>
</linearGradient>
</defs>
</svg>
