<svg width="49" height="145" viewBox="0 0 49 145" fill="none" xmlns="http://www.w3.org/2000/svg">
<path d="M48 144.461V0.97234L45.5833 0.97229H3.36111H1V144.461H3.36111H45.5833H48Z" fill="#F1F1F1"/>
<path d="M45.5833 0.97229L48 0.97234V144.461H45.5833M45.5833 0.97229V2.51136M45.5833 0.97229H3.36111M45.5833 136.766V144.461M45.5833 136.766H3.36111M45.5833 136.766V134.871M45.5833 144.461H3.36111M45.5833 2.51136L3.36111 2.39297M45.5833 2.51136V134.871M45.5833 2.51136L40.7222 7.24695M3.36111 2.39297V0.97229M3.36111 2.39297V134.871M3.36111 2.39297L8.22223 7.24695M3.36111 0.97229H1V144.461H3.36111M3.36111 144.461V136.766M3.36111 136.766V134.871M45.5833 134.871H3.36111M45.5833 134.871L40.7222 131.32M3.36111 134.871L8.08334 131.438M8.08334 131.438L40.7222 131.32M8.08334 131.438L8.22223 7.24695M40.7222 131.32V7.24695M40.7222 7.24695H8.22223" stroke="#191919"/>
</svg>
