<svg width="62" height="152" viewBox="0 0 62 152" fill="none" xmlns="http://www.w3.org/2000/svg">
<path d="M61 151V1H59.0556L45.5833 5.97238H3.36111H0.999996V149.461H3.36111H45.5833H47.6667L47.8056 143.289L59.0556 151H61Z" fill="#F1F1F1"/>
<path d="M59.0556 151H61V1H59.0556M59.0556 151V1M59.0556 151L47.8056 143.289M59.0556 1L45.5833 5.97238M45.5833 5.97238V7.51144M45.5833 5.97238H3.36111M45.5833 141.766L47.8056 143.289M45.5833 141.766V149.461M45.5833 141.766H3.36111M45.5833 141.766V139.871M47.8056 143.289L47.6667 149.461H45.5833M45.5833 7.51144L3.36111 7.39305M45.5833 7.51144V139.871M45.5833 7.51144L40.7222 12.247M3.36111 7.39305V5.97238M3.36111 7.39305V139.871M3.36111 7.39305L8.22222 12.247M3.36111 5.97238H0.999997V149.461H3.36111M3.36111 149.461H45.5833M3.36111 149.461V141.766M3.36111 141.766V139.871M45.5833 139.871H3.36111M45.5833 139.871L40.7222 136.32M3.36111 139.871L8.08333 136.438M8.08333 136.438L40.7222 136.32M8.08333 136.438L8.22222 12.247M40.7222 136.32V12.247M40.7222 12.247H8.22222" stroke="#191919"/>
</svg>
