<svg width="62" height="152" viewBox="0 0 62 152" fill="none" xmlns="http://www.w3.org/2000/svg">
<path d="M1 151V1H2.94444L16.4167 5.97238H58.6389H61V149.461H58.6389H16.4167H14.3333L14.1944 143.289L2.94444 151H1Z" fill="#F1F1F1"/>
<path d="M2.94444 151H1V1H2.94444M2.94444 151V1M2.94444 151L14.1944 143.289M2.94444 1L16.4167 5.97238M16.4167 5.97238V7.51144M16.4167 5.97238H58.6389M16.4167 141.766L14.1944 143.289M16.4167 141.766V149.461M16.4167 141.766H58.6389M16.4167 141.766V139.871M14.1944 143.289L14.3333 149.461H16.4167M16.4167 7.51144L58.6389 7.39305M16.4167 7.51144V139.871M16.4167 7.51144L21.2778 12.247M58.6389 7.39305V5.97238M58.6389 7.39305V139.871M58.6389 7.39305L53.7778 12.247M58.6389 5.97238H61V149.461H58.6389M58.6389 149.461H16.4167M58.6389 149.461V141.766M58.6389 141.766V139.871M16.4167 139.871H58.6389M16.4167 139.871L21.2778 136.32M58.6389 139.871L53.9167 136.438M53.9167 136.438L21.2778 136.32M53.9167 136.438L53.7778 12.247M21.2778 136.32V12.247M21.2778 12.247H53.7778" stroke="#191919"/>
</svg>
