<svg width="99" height="152" viewBox="0 0 99 152" fill="none" xmlns="http://www.w3.org/2000/svg">
<path d="M1 151V1H2.65746L14.1413 5.97238H50.1318H84.1097L95.7119 1.23678H97.6062V151H95.8303L86.1223 143.778V149.461H83.9913H14.1413H12.3654L12.247 143.289L2.65746 151H1Z" fill="#F1F1F1"/>
<path d="M2.65746 151H1V1H2.65746M2.65746 151V1M2.65746 151L12.247 143.289M2.65746 1L14.1413 5.97238M14.1413 5.97238V7.51144M14.1413 5.97238H50.1318H84.1097M14.1413 141.766L12.247 143.289M14.1413 141.766V149.461M14.1413 141.766H83.9913M14.1413 141.766V139.871M12.247 143.289L12.3654 149.461H14.1413M84.1097 5.97238L95.7119 1.23678M84.1097 5.97238L84.1086 7.27466M14.1413 7.51144V139.871M14.1413 7.51144L18.2849 12.247M14.1413 7.51144L84.1086 7.27466M14.1413 149.461H83.9913M83.9913 141.766V139.871M83.9913 141.766V149.461M83.9913 141.766L86.1223 143.778M14.1413 139.871H83.9913M14.1413 139.871L18.2849 136.32M83.9913 139.871L79.9661 136.438M83.9913 139.871L84.1086 7.27466M79.9661 136.438L18.2849 136.32M79.9661 136.438L79.8477 12.247M18.2849 136.32V12.247M18.2849 12.247H79.8477M79.8477 12.247L84.1086 7.27466M83.9913 149.461H86.1223V143.778M86.1223 143.778L95.8303 151M95.8303 151H97.6062V1.23678H95.7119M95.8303 151L95.7119 1.23678" stroke="#191919"/>
</svg>
