<svg width="73" height="151" viewBox="0 0 73 151" fill="none" xmlns="http://www.w3.org/2000/svg">
<path d="M0.5 150.5V0.5H2.44444L15.9167 5.47238H58.1389H60.5V148.961H58.1389H15.9167H13.8333L13.6944 142.789L2.44444 150.5H0.5Z" fill="#F1F1F1"/>
<path d="M2.44444 150.5H0.5V0.5H2.44444M2.44444 150.5V0.5M2.44444 150.5L13.6944 142.789M2.44444 0.5L15.9167 5.47238M15.9167 5.47238V7.01144M15.9167 5.47238H58.1389M15.9167 141.266L13.6944 142.789M15.9167 141.266V148.961M15.9167 141.266H58.1389M15.9167 141.266V139.371M13.6944 142.789L13.8333 148.961H15.9167M15.9167 7.01144L58.1389 6.89305M15.9167 7.01144V139.371M15.9167 7.01144L20.7778 11.747M58.1389 6.89305V5.47238M58.1389 6.89305V139.371M58.1389 6.89305L53.2778 11.747M58.1389 5.47238H60.5V148.961H58.1389M58.1389 148.961H15.9167M58.1389 148.961V141.266M58.1389 141.266V139.371M15.9167 139.371H58.1389M15.9167 139.371L20.7778 135.82M58.1389 139.371L53.4167 135.938M53.4167 135.938L20.7778 135.82M53.4167 135.938L53.2778 11.747M20.7778 135.82V11.747M20.7778 11.747H53.2778" stroke="#191919"/>
<path d="M58 141.029V139.135L58.1172 6.53788L58.1184 5.2356L69.7206 0.5H71.6148V150.263H69.839L60.131 143.041V148.724H58V141.029Z" fill="#F1F1F1"/>
<path d="M58 141.029V139.135L58.1172 6.53788L58.1184 5.2356L69.7206 0.5M58 141.029V148.724H60.131V143.041M58 141.029L60.131 143.041M60.131 143.041L69.839 150.263M69.839 150.263H71.6148V0.5H69.7206M69.839 150.263L69.7206 0.5" stroke="#191919"/>
</svg>
